<svg width="890" height="890" viewBox="0 0 890 890" fill="none" xmlns="http://www.w3.org/2000/svg">
<path d="M757.321 132.438C929.941 305.058 929.941 584.938 757.321 757.558C584.701 930.178 304.838 930.178 132.221 757.558C-40.3967 584.938 -40.3967 305.058 132.221 132.438C304.838 -40.1826 584.701 -40.1826 757.321 132.438Z" stroke="#9A1E23" stroke-width="4.93128" stroke-miterlimit="22.93"/>
<path fill-rule="evenodd" clip-rule="evenodd" d="M523.542 117.075L528.961 117.876C529.379 116.761 529.797 115.646 530.233 114.548C528.276 114.395 526.307 114.5 524.378 114.862L523.542 117.075ZM536.628 114.426L534.154 119.235C536.523 119.689 538.876 120.177 541.245 120.648C541.733 119.357 542.221 118.068 542.727 116.761L536.628 114.426ZM536.001 102.769C533.643 102.02 531.167 101.719 528.7 101.88C528.299 104.645 527.489 107.335 526.295 109.861L526.853 110.07L527.062 109.53L530.059 110.018C530.059 109.843 530.181 109.652 530.25 109.478H532.132L536.001 102.699V102.769ZM477.105 138.77C477.662 135.441 476.147 133.682 477.297 129.953L478.412 130.371L482.803 128.872C483.273 128.193 483.726 127.513 484.197 126.868L485.521 126.729C485.992 126.067 486.445 125.387 486.932 124.725L487.473 124.934L488.884 122.93L489.442 123.14L490.086 121.397C490.262 121.477 490.442 121.547 490.626 121.606C490.766 121.24 490.923 120.874 491.045 120.508L491.655 120.735C492.125 120.055 492.578 119.392 493.066 118.713L493.624 118.939C494.216 117.894 494.826 116.848 495.366 115.82L495.906 116.029L496.324 114.931C496.516 114.983 496.703 115.053 496.882 115.141L498.712 112.004L499.269 112.231L499.687 111.115L500.245 111.325L500.872 109.582C502.639 108.074 504.171 106.312 505.42 104.355C502.859 103.971 502.371 104.965 499.252 103.902C499.255 102.283 499.642 100.688 500.384 99.2491L500.942 99.4582C501.221 98.7263 501.5 97.977 501.796 97.2451L501.221 97.0186C501.36 95.5027 501.221 96.0254 500.768 94.9451L500.977 94.3874L499.862 93.9518C499.705 93.2722 499.548 92.5578 499.374 91.8782C499.078 91.5471 498.799 91.216 498.485 90.8849C498.834 89.9614 499.182 89.0379 499.548 88.1142L500.106 88.3235L500.733 86.5809C505.507 88.4803 505.246 92.2093 508.469 94.6139C508.347 94.9973 508.191 95.3633 508.051 95.7292C509.794 96.9838 509.114 97.6808 511.292 98.8832C513.035 96.1822 515.648 95.3981 517.391 92.9237L520.876 93.6381C520.912 94.6611 520.74 95.6809 520.371 96.6353L519.813 96.4087L518.07 99.5453L517.53 99.3362L516.049 101.567L515.492 101.375C515.283 101.915 515.073 102.49 514.847 103.117L514.307 102.908L513.871 104.024C513.697 104.024 513.505 103.884 513.331 103.814C512.529 104.773 511.745 105.749 510.944 106.724L510.386 106.498L509.759 108.24L509.201 108.014C508.731 108.693 508.26 109.356 507.807 110.035L507.232 109.809L506.605 111.551L506.047 111.342L505.629 112.457C505.438 112.457 505.263 112.3 505.072 112.248L504.235 114.461L503.678 114.252C503.451 114.792 503.242 115.367 503.033 115.907L502.475 115.698L501.848 117.441L501.29 117.232C501.081 117.772 500.872 118.347 500.646 118.887L500.088 118.678L497.858 122.913L497.3 122.704C496.412 124.446 495.558 126.189 494.617 128.036C494.432 127.977 494.253 127.907 494.077 127.827C493.449 128.872 492.857 129.9 492.247 130.946L491.689 130.737C491.219 131.381 490.749 132.061 490.295 132.723C490.105 132.664 489.919 132.594 489.738 132.514L489.093 134.257L488.536 134.047L488.17 134.675L487.612 134.448L487.194 135.563L485.87 135.703L485.242 137.445L483.918 137.585C483.779 137.951 483.639 138.317 483.482 138.682L482.925 138.473C481.461 139.85 483.047 139.641 480.973 140.216L480.764 140.756L477.994 139.71C477.593 138.822 477.994 139.484 477.087 138.717L477.105 138.77ZM541.838 102.438C540.81 104.581 539.782 106.742 538.736 108.903L542.221 109.599C542.448 111.046 543.005 111.342 542.831 113.084L543.929 113.52L547.205 111.586L547.762 111.795L548.181 110.68C550.911 108.41 553.093 105.551 554.558 102.316C550.272 101.131 546.647 103.71 541.768 102.508L541.838 102.438ZM514.899 59.7459C514.15 60.7217 514.795 60.2512 513.923 60.6346C513.923 62.5166 513.749 64.3984 513.68 66.263L514.237 66.4721L513.61 68.2147L514.15 68.4238C514.063 69.2427 513.958 70.0443 513.871 70.8632L514.411 71.0723C514.185 72.2573 513.941 73.4248 513.697 74.5574L514.255 74.7665C512.268 79.9361 510.294 85.1172 508.33 90.3099L511.101 91.3728L511.31 90.8152C514.429 91.0591 520.824 85.7619 521.19 79.9593L520.615 79.7502C520.841 79.1926 521.05 78.635 521.259 78.0076L520.702 77.7985C520.928 77.2409 521.137 76.6833 521.346 76.056C521.033 75.7424 520.754 75.4113 520.44 75.0802C520.649 74.54 520.859 73.9649 521.085 73.3376L520.527 73.146L520.946 72.0308L520.057 71.0549C520.179 70.6716 520.336 70.3056 520.458 69.9397C520.057 69.3473 519.639 68.7723 519.238 68.1971L519.656 67.0819L518.768 66.1062C518.21 64.2068 517.67 62.29 517.13 60.3906L514.899 59.7459ZM556.126 55.1108C556.003 56.3048 556.208 57.5099 556.719 58.5959L557.276 58.805C557.137 60.8785 556.98 62.9173 556.823 64.991C556.266 66.4721 555.691 67.9358 555.081 69.4344C554.366 77.5023 547.484 89.2818 544.487 97.1754C545.793 97.5239 545.968 97.6808 546.926 97.4717L547.135 96.9141L548.233 97.3497C548.318 97.1624 548.395 96.9703 548.459 96.7747L549.574 97.2103L550.55 96.3042L554.384 96.339C554.697 96.0254 555.028 95.7292 555.359 95.433L557.799 95.7292L558.775 94.823L559.89 95.2587C560.465 94.8404 561.04 94.4222 561.632 94.0214L565.117 94.7184C565.518 97.855 566.564 100.347 565.274 104.32C562.504 104.965 560.047 108.31 557.869 110.384C557.679 110.325 557.492 110.255 557.311 110.175C557.085 110.732 556.893 111.29 556.666 111.917L556.126 111.69L554.697 113.764L554.157 113.555L553.513 115.297L552.955 115.071L552.328 116.813L551.77 116.604L551.125 118.347L550.585 118.12C550.359 118.678 550.15 119.235 549.94 119.864L549.383 119.654C548.355 121.815 547.327 123.959 546.281 126.119L545.741 125.91C544.847 128.756 543.969 131.596 543.11 134.431C540.061 133.856 538.806 132.845 535.338 131.469C536.663 128.837 537.795 129.378 539.12 126.555C538.552 125.96 537.87 125.486 537.116 125.161L536.907 125.701L532.463 123.959L532.254 124.516L527.828 122.774C527.741 122.948 527.672 123.14 527.602 123.314L525.947 122.687C525.947 122.878 525.79 123.07 525.72 123.244H523.856L518.524 128.837L516.868 128.21C516.363 126.729 514.812 125.3 514.812 123.61C515.37 122.129 515.945 120.648 516.555 119.183C516.955 114.74 520.04 108.38 521.939 103.501C522.566 101.758 523.193 100.155 523.838 98.4998C523.782 96.6602 524.054 94.8254 524.64 93.0805L527.968 94.3525C527.968 94.5268 527.828 94.7184 527.741 94.9102C529.797 96.6527 533.143 99.6847 535.861 98.6392C537.604 98.8832 537.9 98.6392 538.928 97.2626C540.235 96.6004 542.587 87.8877 543.58 85.0649C545.649 78.025 547.71 70.9735 549.766 63.9105C549.574 63.9105 549.4 63.7537 549.209 63.7014L549.836 61.959L549.296 61.7499L549.714 60.6346L549.156 60.4255L549.801 58.683C549.611 58.6239 549.425 58.5541 549.243 58.4739L549.662 57.3586C549.47 57.3586 549.296 57.2192 549.104 57.1495L550.846 50.8416C551.671 50.7804 552.5 50.8809 553.286 51.1378C553.805 52.7207 554.797 54.1069 556.126 55.1108ZM755.1 293.977L753.531 295.022C753.741 296.765 753.218 297.497 751.266 298.229L748.043 295.963L746.056 291.799L745.046 291.677C743.723 290.318 742.796 288.626 742.362 286.781L744.105 286.17C743.657 284.981 742.956 283.904 742.049 283.016C740.956 283.042 739.876 283.26 738.86 283.661C738.354 284.95 737.919 284.288 737.013 285.281C737.013 285.612 736.926 285.943 736.873 286.274L735.584 286.746C735.638 286.882 735.685 287.023 735.723 287.164L734.155 288.209L734.312 288.645L733.022 289.081C733.05 289.23 733.096 289.379 733.162 289.516L730.566 290.422L730.722 290.858C728.98 292.13 725.983 292.165 724.519 292.6L717.166 295.179C717.129 295.031 717.084 294.885 717.027 294.744L715.145 294.918L714.988 294.482L712.827 295.232C712.789 295.083 712.742 294.939 712.688 294.796C710.527 294.796 709.743 295.127 708.61 292.827L709.743 291.956C710.074 291.294 709.743 291.781 710.457 291.206C710.363 289.603 711.109 288.065 712.426 287.146C712.243 285.738 712.932 284.359 714.169 283.661C713.977 281.117 716.26 279.287 716.103 276.691L716.957 276.394C716.87 276.098 716.765 275.807 716.643 275.523C717.096 275.366 717.532 275.227 717.95 275.053C718.297 276.478 718.297 277.966 717.95 279.391L717.497 279.566C717.497 280.176 717.636 280.803 717.689 281.43L717.253 281.587L717.567 282.441L717.114 282.615L718.856 287.356H724.641C726.164 287.045 727.593 286.375 728.806 285.403L734.033 283.661C735.12 282.756 736.33 282.005 737.623 281.43L735.88 279.148L735.445 279.304C735.009 278.485 734.556 277.666 734.103 276.865L733.685 277.004L733.371 276.15L732.953 276.29C732.5 275.471 732.047 274.669 731.611 273.85L731.175 274.007C729.407 271.984 728.088 269.609 727.307 267.037C728.335 265.87 728.109 265.295 730.322 264.528C730.844 264.912 730.322 264.528 730.897 264.824C732.453 270.008 735.736 274.504 740.202 277.562C740.306 277.858 740.393 278.137 740.498 278.416L743.251 279.391C743.373 279.688 743.46 279.984 743.565 280.263L744.593 280.402C744.593 280.542 744.68 280.681 744.732 280.838L745.743 280.96L746.927 282.964L747.363 282.807C747.45 283.103 747.572 283.399 747.659 283.678L748.095 283.539L749.28 285.542L749.715 285.386C750.308 286.624 750.9 287.878 751.458 289.116L751.894 288.976C752.033 289.394 752.19 289.847 752.347 290.266L752.765 290.109C753.875 291.234 754.688 292.618 755.135 294.134L755.1 293.977ZM734.573 254.613C734.713 255.066 734.87 255.485 735.026 255.903L740.376 255.99L740.533 256.426L741.404 256.112L741.543 256.548L742.414 256.251C742.472 256.393 742.517 256.539 742.554 256.687C743.181 256.792 744.61 256.408 745.028 256.792L745.481 258.098C744.471 259.841 745.481 259.98 742.641 261.026C742.031 260.649 741.287 260.554 740.602 260.764L740.289 259.893L732.918 259.562C732.662 259.337 732.418 259.099 732.186 258.848L729.416 257.889L729.102 257.018L728.684 257.157C728.074 256.774 728.074 256.443 727.359 256.182L726.767 254.439C729.433 253.324 732.134 252.243 734.817 251.127L734.957 251.546C735.549 251.371 736.124 251.162 736.699 250.971C736.699 251.11 736.786 251.249 736.838 251.389L739.592 250.901C739.628 251.049 739.674 251.195 739.731 251.337L741.613 251.162L741.77 251.615L743.059 251.145L743.216 251.581L744.07 251.284C744.138 251.424 744.19 251.57 744.227 251.72C746.079 251.736 747.926 251.905 749.75 252.225C749.994 252.941 750.238 253.655 750.5 254.387C749.635 255.044 748.661 255.546 747.624 255.868C746.178 254.683 742.711 254.544 740.794 254.37L739.505 254.823L738.773 254.126L734.573 254.596V254.613ZM774.772 242.032C774.964 242.624 775.173 243.182 775.365 243.774L773.378 244.959C773.221 245.517 773.099 246.039 772.96 246.562C772.42 246.911 771.88 247.242 771.357 247.608C771.235 248.13 771.096 248.653 770.956 249.193L770.102 249.507C770.102 249.838 770.015 250.169 769.963 250.518C767.583 252.841 764.755 254.655 761.651 255.851L760.763 254.718C760.618 254.746 760.477 254.793 760.345 254.857C759.665 254.265 759.77 252.208 759.717 251.685L760.85 250.796C760.85 250.448 760.937 250.117 760.989 249.786L768.464 246.196C770.294 244.438 772.432 243.032 774.772 242.049V242.032ZM791.605 265.243C790.948 265.023 790.258 264.929 789.566 264.964C789.235 266.462 788.207 266.95 786.081 267.63C785.419 267.212 785.088 267.49 784.46 267.229C781.986 266.149 780.244 264.528 776.619 265.591C776.396 266.103 776.056 266.558 775.626 266.915L775.94 267.787C778.118 268.292 778.972 269.843 780.61 271.481L781.045 271.324L781.516 272.613C781.655 272.77 784.007 274.582 784.129 274.6L787.161 273.554C787.701 272.212 788.991 271.812 790.019 270.609L789.845 270.174L790.733 269.878C790.679 269.735 790.632 269.59 790.594 269.442L792.127 266.968L791.535 265.225L791.605 265.243ZM795.264 268.728C796.1 269.947 797.215 270.243 798.052 271.132L800.7 274.617L801.136 274.46L801.589 275.75L802.025 275.593C802.129 275.889 802.216 276.185 802.321 276.464L802.756 276.307C802.948 276.882 803.175 277.475 803.366 278.05L803.802 277.893C803.969 278.499 804.027 279.13 803.976 279.757C800.003 281.017 795.79 281.327 791.674 280.663L790.385 281.134C790.385 280.977 790.28 280.838 790.245 280.698C789.601 280.698 788.973 280.803 788.346 280.873C788.346 280.716 788.242 280.576 788.207 280.437L786.325 280.611C786.081 280.367 785.837 280.123 785.576 279.897L784.722 280.193C784.408 280.193 784.216 279.723 783.554 279.618C783.45 279.339 783.345 279.043 783.258 278.764C780.819 279.426 781.516 278.851 779.773 278.538L778.919 278.816C778.658 278.59 778.431 278.346 778.187 278.119L777.334 278.416C777.266 278.276 777.214 278.13 777.177 277.98L776.306 278.294L776.149 277.858L775.278 278.154C775.278 278.015 775.278 277.875 775.138 277.719L774.267 278.032C774.23 277.884 774.185 277.738 774.128 277.597L773.256 277.893C773.256 277.754 773.152 277.597 773.117 277.475L771.514 277.039L771.043 274.303L774.058 273.258C774.058 272.909 774.145 272.578 774.197 272.247L775.765 271.202L777.665 272.474L778.1 272.334L783.328 278.764C784.619 278.51 785.952 278.539 787.231 278.851C788.48 278.363 789.538 277.482 790.245 276.342L791.099 276.046C791.099 275.697 791.186 275.366 791.221 275.035L792.093 274.722C792.929 273.572 792.232 272.805 793.94 271.672C793.835 270.331 794.288 270.156 794.462 269.059L795.333 268.762L795.264 268.728ZM809.395 255.049C809.552 255.502 809.709 255.92 809.848 256.356L809.413 256.513C809.273 256.077 809.117 255.641 808.96 255.206L809.395 255.049ZM809.691 265.608L810.563 265.312C810.911 263.57 811.295 261.827 811.643 260.085C810.807 257.854 810.894 258.464 809.726 257.367C806.834 258.551 804.813 259.876 801.798 259.649L801.641 259.231C801.352 259.315 801.066 259.412 800.787 259.527C800.787 259.37 800.683 259.231 800.631 259.092L798.749 259.266L798.017 258.551L797.146 258.848L792.789 257.454C792.528 256.757 792.284 256.042 792.04 255.31L791.605 255.45L791.448 255.014L787.144 256.548C787.318 258.848 785.628 259.423 784.879 261.2L782.3 262.089C781.638 261.688 781.376 261.914 780.697 261.688L780.54 261.252L779.686 261.566C779.686 261.409 779.564 261.27 779.529 261.13L777.351 260.433C777.194 260.015 777.037 259.562 776.898 259.144C777.041 259.097 777.182 259.038 777.316 258.97C777.647 258.064 777.978 257.227 778.31 256.217L780.47 255.467L780.313 255.032L782.474 254.282C782.474 254.143 782.369 253.986 782.317 253.864L783.188 253.551L783.032 253.115L785.471 251.772C785.471 251.441 785.558 251.11 785.61 250.762C787.945 247.886 792.18 244.907 791.239 240.551C787.98 241.875 786.778 243.879 784.809 245.778L783.519 246.231C780.136 249.035 776.361 251.33 772.315 253.045C772.925 254.579 773.744 255.798 773.535 256.53C773.798 257.272 773.904 258.062 773.849 258.848C773.082 259.405 773.465 258.848 773.134 259.562L770.451 260.137C770.224 259.893 769.963 259.649 769.719 259.423L767.855 259.597L767.123 258.865L765.241 259.057L764.509 258.342L763.638 258.639L762.906 257.924L762.035 258.22C762.035 258.081 761.948 257.924 761.895 257.785C760.224 257.767 758.581 257.349 757.104 256.565C756.513 256.799 755.973 257.149 755.518 257.593C756.929 261.078 759.839 260.207 762.488 260.973L764.37 262.246L765.241 261.932L765.398 262.367L767.593 263.064C767.68 263.361 767.767 263.639 767.872 263.936L769.493 264.336C769.632 264.772 769.789 265.208 769.928 265.643L768.186 266.236C768.36 267.246 768.011 268.205 768.813 269.407L769.249 269.25C769.493 269.982 769.754 270.714 769.998 271.428C769.855 271.47 769.716 271.522 769.58 271.585C769.618 271.726 769.665 271.867 769.719 272.003L769.283 272.16C769.224 272.017 769.172 271.873 769.127 271.725C768.407 272.075 767.595 272.185 766.809 272.038C766.771 271.897 766.724 271.756 766.67 271.62L765.798 271.916C765.762 271.773 765.717 271.634 765.659 271.498L764.805 271.794C764.352 271.463 763.917 271.115 763.464 270.801L763.045 270.94L762.732 270.087L762.314 270.243C762.192 269.947 762.104 269.668 762 269.372L761.564 269.529C761.477 269.233 761.373 268.937 761.268 268.658L760.832 268.815C760.745 268.518 760.641 268.24 760.536 267.943L760.118 268.1L759.804 267.229L758.776 267.09C758.393 266.427 757.992 265.765 757.609 265.086L757.173 265.243L755.274 263.971L752.538 264.441C753.286 266.093 754.451 267.522 755.919 268.588L756.354 268.431C756.494 268.867 756.65 269.303 756.807 269.738L757.226 269.581L757.539 270.453L757.975 270.296C758.062 270.592 758.166 270.871 758.271 271.15L759.282 271.289C759.386 271.585 759.491 271.864 759.578 272.16L760.606 272.282C762.192 273.537 761.878 275.018 763.133 276.743L763.551 276.569C763.812 277.301 764.056 278.032 764.317 278.747L764.736 278.59L765.189 279.897C765.534 279.925 765.877 279.972 766.217 280.036C766.513 280.402 766.809 280.785 767.088 281.169L767.541 281.012C767.68 281.448 767.82 281.866 767.977 282.301L769.005 282.441C769.336 282.964 769.684 283.486 770.033 284.009C771.775 285.647 774.093 286.693 775.26 289.447C774.493 290.004 774.877 289.447 774.546 290.178L772.385 290.928C772.385 290.788 772.298 290.649 772.246 290.492C770.984 290.037 769.869 289.248 769.022 288.209C768.918 287.931 768.83 287.652 768.726 287.356L767.715 287.234L767.262 285.926L766.827 286.084C766.722 285.787 766.617 285.508 766.53 285.229L766.077 285.368C765.938 284.95 765.781 284.514 765.642 284.079L765.206 284.218C764.858 283.713 764.509 283.19 764.178 282.65C763.83 282.65 763.498 282.545 763.15 282.528C763.063 282.232 762.958 281.935 762.854 281.674C762.749 281.413 762.174 281.552 761.843 281.535L759.369 279.966L757.766 279.566C757.661 279.27 757.574 278.973 757.469 278.694L756.459 278.555L755.396 276.987L754.385 276.865C754.298 276.569 754.194 276.272 754.089 275.994L753.671 276.15C753.584 275.837 753.462 275.575 753.375 275.279L752.922 275.436C752.782 275 752.625 274.565 752.469 274.129C752.336 274.197 752.195 274.249 752.05 274.286C751.737 273.432 751.44 272.544 751.144 271.707C749.989 270.395 748.994 268.951 748.182 267.403C747.572 267.194 748.182 267.403 747.607 267.107L745.011 268.031C744.286 269.876 744.472 271.955 745.516 273.641L745.952 273.502L747.694 275.785L748.13 275.645C748.374 276.36 748.618 277.074 748.879 277.806C749.024 277.762 749.165 277.705 749.297 277.632C749.004 278.348 748.572 278.999 748.025 279.548C748.583 281.117 749.053 282.232 750.099 282.702C751.498 284.021 753.519 284.439 755.326 283.783L757.922 282.894C757.98 283.03 758.025 283.169 758.062 283.312L758.933 283.016C758.933 283.155 759.02 283.295 759.09 283.451H760.536C762.052 285.194 763.812 286.937 765.241 288.68L766.565 291.119L767.576 291.241C767.802 291.834 767.994 292.409 768.186 292.984L768.621 292.844C768.726 293.123 768.813 293.419 768.918 293.698L769.946 293.82C770.033 294.134 770.137 294.413 770.242 294.691L770.66 294.552C771.27 295.301 771.845 296.068 772.402 296.835L774.581 297.532L775.33 298.229L776.184 297.932L779.982 300.476C781.378 300.135 782.627 299.361 783.554 298.264C782.666 295.197 781.812 292.113 780.836 289.046L780.4 289.203C780.296 288.924 780.209 288.628 780.104 288.331L778.501 287.931C778.397 287.617 778.292 287.356 778.205 287.059L777.177 286.937C777.09 286.641 776.985 286.345 776.881 286.066L775.87 285.926L774.128 283.643L774.563 283.486C774.459 283.207 774.354 282.929 774.267 282.632C776.234 282.183 778.287 282.296 780.191 282.964L781.063 282.667L782.369 283.678L784.269 283.504C784.314 283.647 784.366 283.786 784.426 283.922L785.279 283.626L786.011 284.34H788.904C789.165 284.567 789.392 284.811 789.636 285.037H792.546L793.26 285.735H796.152L796.902 286.432L798.191 285.995L798.923 286.693L800.787 286.537C800.859 286.676 800.916 286.822 800.962 286.972L803.262 286.641C803.324 286.782 803.377 286.929 803.419 287.077L804.272 286.781C804.272 286.903 804.377 287.059 804.429 287.199L806.172 286.589C806.172 286.746 806.276 286.885 806.311 287.025C807.287 286.536 808.245 286.048 809.186 285.542C809.047 284.971 809.204 284.37 809.604 283.939C809.047 282.354 808.489 280.785 807.949 279.182C807.806 279.242 807.662 279.294 807.513 279.339C807.269 278.625 807.008 277.91 806.764 277.179L806.328 277.335C806.172 276.9 806.032 276.464 805.858 276.028C805.733 276.098 805.597 276.15 805.457 276.185L804.987 274.896L804.569 275.053C804.412 274.617 804.255 274.181 804.116 273.746C803.967 273.788 803.821 273.84 803.68 273.903L801.937 271.603L801.502 271.759C801.397 271.481 801.293 271.184 801.206 270.888L800.753 271.045C800.665 270.749 800.561 270.47 800.456 270.191C800.312 270.23 800.172 270.282 800.038 270.348L799.724 269.459L799.289 269.616C799.184 269.337 799.097 269.041 798.993 268.762L798.557 268.884C797.965 268.153 797.372 267.368 796.815 266.619L795.787 266.48L794.758 264.912C793.399 263.709 792.667 264.11 791.657 261.636L793.242 260.59L796.309 262.333L797.18 262.054C797.477 262.42 797.773 262.803 798.052 263.186L800.247 263.883C800.334 264.162 800.439 264.458 800.543 264.737L801.554 264.859L806.956 267.821L809.97 266.776C809.866 266.497 809.779 266.201 809.674 265.905L809.691 265.608ZM138.298 285.647C139.728 286.181 141.233 286.486 142.758 286.554C142.933 286.223 143.072 285.874 143.246 285.56C142.894 285.149 142.707 284.621 142.724 284.079L138.751 282.179C138.089 284.026 138.629 283.922 138.298 285.664V285.647ZM133.715 262.036C134.116 261.2 134.516 260.294 134.9 259.562L135.405 259.789C135.405 259.614 135.562 259.458 135.649 259.283C143.63 263.326 147.115 271.01 151.227 276.534L147.376 282.04L147.881 282.267L147.637 282.754C146.621 281.8 145.704 280.742 144.902 279.601L143.403 278.886C143.403 278.712 143.56 278.555 143.647 278.398L142.654 277.91C142.654 277.754 142.811 277.579 142.88 277.422L139.134 273.781C139.134 273.362 139.134 272.962 139.134 272.544L137.392 271.097C137.392 270.697 137.392 270.278 137.392 269.878L136.416 269.39C136.416 268.989 136.416 268.571 136.416 268.17L135.423 267.682L133.854 262.036H133.715ZM110.906 226.663C110.615 228.294 110.615 229.963 110.906 231.594C110.749 231.925 110.575 232.256 110.435 232.588C110.679 232.919 110.923 233.232 111.202 233.563C111.045 234.713 110.906 235.863 110.749 237.048C110.993 237.379 111.254 237.71 111.516 238.024L111.028 239.017L112.056 240.76C111.882 241.091 111.725 241.422 111.568 241.736L112.073 241.979C112.16 242.642 112.265 243.304 112.352 243.948C113.258 246.58 115.733 250.343 115.21 253.272C116.43 254.248 116.029 254.474 117.231 255.467C116.929 256.166 116.775 256.919 116.778 257.68L114.304 256.495C114.304 256.339 114.461 256.164 114.53 255.99L112.038 254.805C110.418 258.29 111.185 260.172 110.47 263.221C112.701 264.093 113.694 263.5 115.698 263.883L116.917 262.629L117.405 262.873C117.562 262.524 117.719 262.193 117.893 261.88L118.381 262.106C118.869 261.113 119.339 260.12 119.81 259.126L129.516 264.354C130.342 263.585 131 262.653 131.45 261.618C131.119 261.043 130.788 260.468 130.439 259.876C130.596 259.545 130.753 259.214 130.927 258.883C130.387 257.82 129.881 256.757 129.376 255.694C129.533 255.363 129.69 255.032 129.864 254.701L128.836 252.958L130.578 249.472C133.785 250.152 135.701 248.148 139.204 249.333C139.639 250.727 139.953 250.221 140.72 251.284C140.72 251.441 140.563 251.615 140.493 251.772C140.807 251.946 141.138 252.086 141.469 252.243C141.405 252.419 141.324 252.588 141.225 252.748L142.218 253.219C142.151 253.394 142.07 253.563 141.974 253.725C142.497 253.951 142.985 254.195 143.49 254.439C143.49 254.84 143.49 255.276 143.49 255.676L146.47 258.395C146.383 258.569 146.313 258.743 146.243 258.9C146.818 259.388 147.411 259.858 147.986 260.364L147.742 260.852L149.484 262.298L149.24 262.803L150.983 264.249L150.739 264.737L151.732 265.225C151.732 265.382 151.575 265.539 151.488 265.713L152.499 266.184L152.255 266.689C152.586 266.846 152.934 267.002 153.248 267.177C153.248 267.334 153.091 267.49 153.022 267.665L153.997 268.135C153.997 268.309 153.841 268.466 153.771 268.64L154.764 269.111L154.52 269.616L155.513 270.087L155.356 270.592L156.35 271.08L156.106 271.568L157.099 272.056C157.099 272.474 157.099 272.875 157.099 273.275C158.197 275.122 159.626 275.506 159.155 277.945L159.66 278.189L158.458 280.663C155.513 280.855 151.662 282.65 148.613 282.057L147.672 284.061C149.868 285.804 151.488 290.492 154.189 290.841C154.276 290.684 154.363 290.509 154.433 290.353L156.663 290.806C157.604 288.401 158.545 285.996 159.504 283.591C160.576 282.524 161.545 281.357 162.396 280.106C163.058 280.402 163.72 280.733 164.383 281.047C164.543 281.864 164.543 282.704 164.383 283.521C166.352 285.159 165.846 286.537 166.125 288.75L167.153 290.492C166.909 291.416 166.683 292.322 166.439 293.228L165.951 292.984C165.515 291.694 164.208 290.963 162.466 290.091L161.246 291.346L160.776 291.102C160.776 291.677 160.619 292.252 160.532 292.844C162.274 294.186 162.013 294.97 160.863 297.288C160.026 297.584 160.654 297.183 159.887 298.037L158.144 297.828L157.674 298.821L153.945 297.654L154.172 297.166L153.178 296.678C153.178 296.504 153.353 296.347 153.422 296.173L151.941 295.458C150.843 294.186 151.279 293.716 149.171 292.304C147.94 292.869 146.572 293.062 145.233 292.862C144.251 293.811 143.056 294.51 141.748 294.901L141.417 294.465C141.26 294.796 141.086 295.144 140.946 295.458L140.441 295.214C139.186 296.8 141.434 302.184 141.086 304.083L142.828 305.547L142.584 306.035L144.571 306.993C144.658 306.819 144.727 306.662 144.797 306.488L149.293 308.649C149.293 308.474 149.449 308.3 149.519 308.143L151.018 308.858C151.018 308.684 151.175 308.527 151.262 308.352C153.701 308.591 156.069 309.307 158.232 310.461C158.392 311.278 158.392 312.118 158.232 312.935L158.719 313.162C158.859 314.678 156.088 317.013 155.6 317.152C153.3 317.884 151.523 315.584 148.631 315.061C144.414 314.312 138.524 310.879 133.976 308.666C134.047 308.494 134.129 308.325 134.22 308.161L133.715 307.917C134.116 306.68 134.499 305.443 134.882 304.205C135.475 304.205 136.05 304.345 136.625 304.414C137.461 304.118 136.625 304.205 137.845 304.414C138.019 304.083 138.158 303.752 138.332 303.421C137.217 301.574 137.827 299.623 137.479 297.497C137.148 296.939 136.817 296.364 136.468 295.754C136.625 295.423 136.782 295.092 136.956 294.761C137.13 294.43 136.451 294.064 136.433 293.28C132.739 292.932 127.721 290.318 123.521 288.331C123.613 287.206 123.927 286.11 124.445 285.107C124.614 285.175 124.777 285.255 124.933 285.351L126.675 283.086C128.993 283.8 131.293 284.497 133.645 285.176C134.534 282.876 133.645 282.04 133.645 280.263L134.133 279.252C133.697 278.451 133.262 277.632 132.844 276.813C133 276.482 133.157 276.15 133.332 275.819L132.826 275.575C132.826 275.175 132.826 274.756 132.826 274.356L131.833 273.885C131.188 272.143 129.097 272.038 127.337 270.505C127.337 270.331 127.494 270.174 127.581 270C124.096 267.072 114.757 268.536 111.76 268.536C111.62 270.104 111.481 271.672 111.359 273.241C111.463 275.837 112.195 276.255 110.732 279.67C107.647 280.472 107.717 281.901 103.326 279.792C103.227 279.275 103.051 278.776 102.803 278.311C103.274 277.335 103.744 276.325 104.232 275.332L103.727 275.105L104.459 273.606L103.953 273.362C104.197 272.875 104.424 272.369 104.668 271.881L104.18 271.62C104.406 271.132 104.65 270.644 104.894 270.139L104.389 269.895L104.859 268.902L104.372 268.675C104.616 268.17 104.842 267.665 105.086 267.177C104.918 267.105 104.755 267.025 104.598 266.933L105.278 264.214C105.108 264.147 104.945 264.066 104.79 263.971C104.929 263.657 105.103 263.326 105.26 262.977C105.093 262.906 104.93 262.826 104.772 262.733C104.999 262.246 105.243 261.758 105.469 261.252L104.981 261.008C105.121 260.276 105.278 259.527 105.434 258.778L104.929 258.551L105.644 257.07L105.156 256.826L105.574 253.341L105.086 253.098L105.556 252.103L105.069 251.859C105.225 251.546 105.382 251.197 105.556 250.884L105.051 250.64L105.522 249.629L105.016 249.402C105.173 249.071 105.33 248.74 105.504 248.409L104.999 248.165L105.487 247.172L104.981 246.928L105.469 245.935L104.964 245.708C105.121 245.377 105.278 245.046 105.452 244.715L104.825 244.454C104.981 244.123 105.121 243.792 105.295 243.461L104.79 243.217C104.964 242.886 105.121 242.555 105.278 242.223L104.772 241.979L105.26 240.986L104.755 240.76C104.912 240.411 105.069 240.08 105.243 239.749L104.738 239.523L105.208 238.529L104.459 237.554L104.929 236.56C104.685 236.229 104.424 235.916 104.162 235.585C104.337 235.254 104.494 234.922 104.65 234.591L102.594 229.939L103.797 227.465C105.888 227.116 105.783 225.496 108.205 225.896C108.205 225.74 108.362 225.583 108.432 225.409L110.923 226.593L110.906 226.663ZM355.637 106.428C361.178 104.268 366.754 99.4582 370.291 96.1125L374.473 93.3419L374.264 92.8366L375.797 92.2616L375.588 91.7562C376.886 90.397 378.495 89.3743 380.275 88.7765C382.628 90.6758 385.503 91.3902 387.245 94.8057C386.764 96.0324 386.47 97.3248 386.374 98.6392L385.259 100.242C385.381 100.573 385.503 100.922 385.642 101.253L384.196 103.553C384.335 103.884 384.475 104.233 384.597 104.564L383.151 106.881C383.29 107.212 383.412 107.543 383.551 107.892C383.063 108.641 382.575 109.425 382.105 110.192C382.227 110.523 382.366 110.872 382.506 111.203L381.669 112.091C381.669 112.666 381.669 113.241 381.757 113.834L381.234 114.025C380.863 114.966 380.863 116.012 381.234 116.953L381.739 116.761C382.541 115.019 386.845 113.572 389.458 112.614C390.242 114.513 392.037 117.998 391.48 119.392C391.927 121.457 390.654 123.503 388.604 124.011C386.566 123.018 386.566 124.412 384.161 124.551C384.086 124.387 384.023 124.218 383.969 124.046L381.931 124.83C381.877 124.657 381.814 124.489 381.739 124.324L380.223 124.917C380.223 124.743 380.084 124.568 380.031 124.412C379.509 124.586 379.003 124.795 378.498 124.987C377.087 124.611 375.637 124.395 374.177 124.342C372.73 121.972 372.295 121.275 373.236 118.869L374.055 117.963C373.915 117.632 373.776 117.301 373.654 116.953L374.49 116.064C374.699 114.81 373.48 113.781 373.619 112.318L374.752 110.697C374.612 110.384 374.49 110.035 374.368 109.704L375.484 108.101C376.097 106.321 376.357 104.439 376.25 102.56L376.773 102.368C376.773 102.194 376.634 102.037 376.581 101.863C376.409 101.922 376.24 101.992 376.076 102.072C374.438 100.939 371.075 102.734 368.583 103.814C367.73 105.557 366.057 105.261 364.419 106.585L356.456 113.137L357.553 114.461L358.059 114.269C358.181 114.618 358.32 114.949 358.442 115.28L358.965 115.088L359.54 116.604L360.045 116.413C360.167 116.761 360.307 117.092 360.429 117.441L360.969 117.249C361.213 117.929 361.474 118.608 361.735 119.288C365.22 123.54 367.329 130.998 368.392 136.504C366.214 138.804 366.963 140.425 362.973 142.098C362.328 141.426 361.824 140.632 361.492 139.763C362.154 138.02 360.359 135.511 360.15 133.281C359.941 131.05 359.035 124.568 356.874 121.728C355.421 120.247 354.184 118.569 353.197 116.744L352.187 117.144C351.385 118.608 350.601 120.073 349.817 121.536C349.556 122.425 349.329 123.279 349.085 124.168C347.987 125.91 346.959 126.067 347.203 128.384L346.193 128.768C345.931 130.597 343.875 135.529 342.255 136.679C342.429 138.229 342.551 137.881 341.331 138.787C341.453 139.135 341.592 139.467 341.714 139.798L340.704 140.198L338.717 145.617L337.393 146.715C337.515 147.046 337.654 147.395 337.794 147.726C336.93 148.365 336.255 149.226 335.842 150.218C335.842 150.392 335.982 150.566 336.034 150.723L335.006 151.124L334.901 152.326L333.385 152.918C333.385 153.094 333.507 153.25 333.577 153.425L332.044 154.017C327.74 157.711 323.697 156.056 319.933 155.76C319.724 155.254 319.55 154.749 319.341 154.226C322.122 152.946 324.56 151.023 326.45 148.615L327.478 148.231C327.478 148.057 327.339 147.9 327.287 147.726L328.28 147.343C328.28 147.168 328.158 147.011 328.106 146.837C328.698 146.402 329.308 145.966 329.935 145.548C329.935 145.147 329.935 144.729 330.04 144.345L331.869 143.056C331.869 142.638 331.869 142.255 331.991 141.836L333.002 141.453C333.141 140.808 333.298 140.164 333.438 139.536L334.448 139.135L334.553 137.933L335.563 137.55C335.72 136.905 335.86 136.278 335.999 135.633L337.01 135.25C337.358 134.135 337.724 133.037 338.055 131.939L339.083 131.538L339.188 130.319L339.711 130.127L339.815 128.925L340.826 128.524C341.192 127.426 341.523 126.328 341.889 125.213L343.196 124.133C343.805 122.268 342.76 122.146 344.764 120.648L344.38 119.636L345.391 119.235C346.924 115.158 348.458 111.063 349.991 107.038L351.42 104.721C351.298 104.389 351.159 104.058 351.037 103.71L353.72 98.6044C353.581 98.2733 353.459 97.9247 353.337 97.5936L354.156 96.6875C354.156 96.13 354.156 95.5549 354.069 94.9451C354.661 93.9518 355.236 92.9411 355.811 91.9479C355.689 91.5994 355.567 91.2682 355.428 90.9197C355.811 90.397 356.177 89.8568 356.56 89.3167C356.438 88.9856 356.299 88.6545 356.177 88.306L357.292 86.7028L356.909 85.7096L358.041 84.089C357.902 83.758 357.78 83.4269 357.641 83.0784C358.651 78.7395 360.986 73.7907 359.54 68.3715C351.925 69.8003 348.284 75.7598 343.561 79.785L333.629 84.1413C333.629 83.9671 333.49 83.7928 333.438 83.636C332.688 83.7231 331.957 83.8277 331.207 83.8974C330.552 83.2343 330.047 82.438 329.726 81.5623C332.697 79.8862 335.435 77.8238 337.864 75.4287L339.902 74.6445C341.889 72.902 344.572 70.8284 346.524 69.1904L348.545 68.4063C348.491 68.2339 348.428 68.0652 348.353 67.9009L353.581 64.7295C353.581 64.5553 353.459 64.3984 353.389 64.2242L354.922 63.6492C354.922 63.4749 354.783 63.3007 354.731 63.1439C355.219 62.9348 355.741 62.7431 356.247 62.5514C356.247 62.3772 356.107 62.2203 356.055 62.0461L358.076 61.2619C358.995 60.2293 359.984 59.2627 361.038 58.3694C360.62 55.4419 362.781 54.6577 366.144 53.4902C367.048 54.2217 368.059 54.8095 369.141 55.2328C370.291 58.1253 371.284 60.5649 370.883 62.7431L370.065 63.6317C370.065 64.3636 370.256 65.113 370.343 65.8622L368.897 68.1623C368.984 68.8942 369.089 69.6435 369.176 70.3753C368.392 71.8565 367.59 73.3202 366.789 74.7839C366.928 75.1325 367.067 75.4636 367.189 75.8121C366.388 77.2757 365.604 78.7395 364.82 80.2032L360.638 90.5538L358.268 94.9625C358.407 95.2936 358.529 95.6421 358.669 95.9731C358.181 96.7398 357.693 97.5065 357.222 98.2733C356.214 100.873 355.7 103.639 355.706 106.428H355.637ZM702.494 125.962L704.481 127.06C704.376 127.653 704.272 128.245 704.15 128.803L704.655 129.081L704.097 130.075L704.812 131.12C704.55 131.608 704.272 132.113 703.975 132.619L704.707 133.647C704.481 135.86 700.978 138.77 700.142 139.554C698.87 141.017 697.633 142.498 696.378 143.98H695.106L694.287 145.461L693.799 145.199L693.242 146.193C693.08 146.089 692.911 145.996 692.736 145.914L691.917 147.395L691.43 147.116L690.593 148.615H689.339L687.457 150.828C691.586 153.059 693.73 151.873 697.912 154.087C697.912 156.282 698.417 156.526 696.936 159.314C696.117 159.436 696.936 159.21 696.152 159.541C692.806 157.798 682.473 155.463 680.26 156.579L678.396 158.774L677.908 158.495L676.026 160.708L675.538 160.43C674.998 160.987 674.475 161.58 673.935 162.172L673.447 161.893L672.611 163.374H671.356L670.52 164.873L670.032 164.594C669.161 165.082 668.917 165.57 668.15 166.79C668.969 168.184 668.655 169.125 670.032 170.431C669.84 170.762 669.649 171.094 669.474 171.425C671.121 174.517 672.346 177.816 673.116 181.235L673.273 183.273L674.284 183.831C674.458 185.016 674.667 186.218 674.876 187.422L675.869 187.962V189.234C676.183 189.425 676.514 189.6 676.862 189.774C676.862 190.209 676.862 190.61 676.862 191.046L680.574 193.764L680.278 194.252L685.819 195.995C685.54 196.482 685.244 196.988 684.982 197.493C684.82 197.39 684.651 197.296 684.477 197.214C684.059 197.615 683.588 198.016 683.153 198.417L682.665 198.138L682.107 199.131L681.619 198.87C680.539 199.236 680.992 199.41 679.581 199.026C677.943 200.769 678.971 199.462 677.263 199.689L675.434 200.612C671.67 200.891 666.617 198.87 667.836 194.444L666.843 193.904C666.948 193.311 667.052 192.719 667.174 192.161C666.773 191.307 666.39 190.419 666.007 189.582L666.564 188.589L665.623 186.847L666.181 185.852L665.467 184.789C665.571 184.214 665.676 183.622 665.798 183.047L665.292 182.768C665.484 182.437 665.658 182.123 665.833 181.775L665.136 180.729C665.31 180.398 665.501 180.085 665.676 179.736C665.449 179.405 665.205 179.039 664.961 178.708C665.136 178.377 665.345 178.046 665.519 177.715C665.275 177.349 665.048 177.001 664.787 176.669C665.014 175.903 665.205 175.153 665.414 174.404C665.17 174.056 664.909 173.707 664.683 173.341C664.559 171.897 664.712 170.442 665.136 169.055L663.637 168.236C662.36 169.607 660.851 170.74 659.176 171.581H657.904C657.73 171.912 657.538 172.244 657.364 172.592C656.667 172.592 656.005 172.697 655.325 172.749C655.134 173.063 654.942 173.394 654.768 173.742L651.178 174.352L650.638 175.328C648.896 175.694 647.153 176.042 645.411 176.373L644.086 177.593L643.111 177.035C642.919 177.384 642.727 177.698 642.553 178.029L640.514 178.203L632.534 180.904L631.523 180.363L631.244 180.851C630.129 181.113 630.478 180.747 629.502 181.775C627.045 181.165 626.923 182.402 625.146 182.611L624.17 182.071L622.34 182.995C620.542 183.12 618.74 182.779 617.113 182.001C617.74 181.287 618.367 180.538 618.977 179.788C619.936 179.684 620.859 179.545 621.8 179.423L630.513 176.495L632.551 176.321L633.109 175.328L635.148 175.171L635.409 174.666H636.681L637.239 173.672L641.595 172.836C641.786 172.522 641.961 172.191 642.152 171.86L644.993 171.268L645.55 170.275L647.571 170.118L648.129 169.125L650.168 168.95C650.359 168.619 650.534 168.288 650.725 167.974L653.531 167.574L655.134 165.831H656.406L657.713 164.629L658.218 164.908L659.804 163.165H661.076L662.696 161.423L663.184 161.684C663.707 161.109 664.247 160.552 664.787 159.942L665.275 160.22L666.878 158.478C667.04 158.581 667.209 158.674 667.383 158.757C667.645 158.269 667.924 157.781 668.185 157.276C669.509 156.3 670.189 156.579 671.67 154.627C667.453 152.518 660.483 152.047 660.326 147.029L659.821 146.768C660.204 145.67 660.588 144.589 660.988 143.492L665.17 146.471L664.892 146.977L672.872 149.137L673.151 148.632C675.887 148.963 677.246 150.252 679.267 148.127L679.772 148.405L681.585 146.193L682.072 146.489L682.891 144.99L683.397 145.269L684.216 143.77L684.704 144.049C685 143.561 685.261 143.073 685.54 142.568L686.028 142.847C686.411 142.185 686.777 141.523 687.143 140.843L687.631 141.139L688.467 139.641L688.955 139.92L689.792 138.438C689.961 138.518 690.124 138.611 690.28 138.717L691.116 137.219L691.604 137.498C691.883 137.01 692.144 136.487 692.423 135.999L692.911 136.278C693.294 135.616 693.66 134.954 694.026 134.291L694.531 134.57C694.793 134.065 695.071 133.56 695.35 133.089L695.838 133.368C696.221 132.688 696.57 132.026 696.953 131.381L697.441 131.643L702.494 125.962ZM191.948 115.75C192.621 116.158 193.377 116.408 194.161 116.482L194.527 116.099C197.594 117.232 199.755 125.213 201.288 127.165C202.112 126.083 202.614 124.79 202.734 123.436C202.996 123.209 203.24 122.948 203.484 122.704L203.118 122.338C203.344 122.094 203.588 121.833 203.85 121.589C203.714 121.476 203.585 121.354 203.466 121.223C204.106 119.132 205.228 117.222 206.742 115.646C207.239 115.712 207.744 115.712 208.241 115.646L210.471 117.859L210.854 117.475L211.586 118.225L212.684 117.841C214.426 118.521 215.786 121.327 216.43 122.251C216.239 122.913 216.43 123.436 216.43 123.732C216.43 124.028 215.908 124.237 215.681 124.481L216.047 124.847L214.967 125.962C215.08 126.093 215.202 126.215 215.333 126.328C215.193 127.443 215.089 128.559 214.967 129.674L215.733 130.406C215.611 130.789 215.489 131.155 215.35 131.521C215.489 132.636 215.629 133.751 215.751 134.849L215.019 135.598L215.402 135.964L214.653 136.731L215.054 137.829C214.67 138.438 214.304 139.066 213.939 139.693C214.074 139.8 214.203 139.916 214.322 140.042L211.377 143.021C211.011 142.673 210.628 142.307 210.262 141.923L210.628 141.558C210.628 140.704 210.488 141.401 210.976 140.46L210.61 140.076L211.708 138.961C211.091 137.565 210.828 136.039 210.941 134.518L211.325 134.152L210.558 133.403C210.698 133.037 210.802 132.671 210.924 132.288C210.663 132.044 210.436 131.8 210.192 131.556C210.297 131.19 210.419 130.824 210.541 130.441C209.988 128.091 208.802 125.939 207.108 124.22C206.54 124.99 206.169 125.887 206.028 126.834L206.394 127.2C206.028 127.809 205.644 128.437 205.296 129.047C205.418 129.412 205.54 129.796 205.679 130.162L204.93 130.911L205.296 131.277C204.703 133.333 203.275 132.636 204.599 134.988C204.494 137.41 206.481 139.153 207.613 141.627L207.247 141.993C207.735 142.498 208.241 142.986 208.729 143.474C210.461 147.304 212.47 151.002 214.74 154.54C216.709 152.118 218.199 149.344 219.131 146.367L220.246 145.234L219.863 144.868L220.961 143.753L220.577 143.387L221.675 142.272C221.567 142.132 221.445 142.003 221.309 141.889C221.693 141.523 222.058 141.139 222.407 140.756L222.041 140.407C222.299 140.171 222.543 139.921 222.773 139.658C222.668 139.536 222.529 139.432 222.407 139.292L225.056 135.128L224.69 134.762L225.421 134.013L225.056 133.629C225.421 133.281 225.787 132.915 226.153 132.514L225.77 132.166C226.443 129.891 227.704 127.835 229.429 126.206C232.06 126.868 232.043 125.806 235.005 128.75L234.639 129.134L235.388 129.865C235.266 130.493 235.144 131.12 235.023 131.713L235.406 132.078L233.193 135.058C232.252 137.166 232.357 139.223 230.666 141.383L228.784 138.804C227.927 139.966 227.197 141.216 226.606 142.533L226.972 142.882L226.24 143.631L226.606 144.014L224.759 146.611L225.143 146.977C224.916 147.238 224.655 147.482 224.411 147.726C224.529 147.857 224.658 147.979 224.794 148.092L222.947 150.706L223.33 151.071L222.599 151.821L222.965 152.169L221.867 153.32L222.233 153.669L221.135 154.784L221.501 155.15L220.769 155.899L221.135 156.265L220.037 157.398L220.421 157.764C219.915 158.495 219.427 159.245 218.957 159.994C219.079 160.116 219.183 160.238 219.323 160.36L218.591 161.841L222.355 169.978L221.989 170.344L222.738 171.076L222.372 171.459L223.505 172.557L223.139 172.923C223.383 173.184 223.609 173.411 223.871 173.655C224.108 175.387 224.759 177.037 225.77 178.464C226.502 178.36 225.77 178.36 226.502 178.464L231.729 174.718C230.736 172.749 229.725 170.78 228.715 168.811C226.798 165.326 222.128 163.583 219.758 161.475C221.576 159.616 223.885 158.311 226.415 157.711C227.844 158.844 230.841 160.255 232.008 162.486L231.642 162.869C232.269 163.723 232.879 164.612 233.507 165.43L233.141 165.814C234.029 167.661 234.883 169.508 235.772 171.355L238.717 169.107L241.313 169.456C243.055 169.456 245.077 171.599 246.906 173.481C243.909 176.582 241.505 176.408 238.786 177.994L239.57 181.688L239.204 182.786C239.57 183.413 239.954 184.04 240.337 184.65C240.198 185.26 240.093 185.887 239.971 186.498L240.72 187.23L240.355 189.094L241.104 189.826C240.999 190.924 240.877 192.057 240.773 193.172C240.999 193.642 241.243 194.147 241.505 194.635C241.383 195.001 241.278 195.385 241.139 195.751L241.905 196.482L241.539 197.598C241.679 198.957 241.818 200.316 241.94 201.658L241.191 202.424C241.327 202.538 241.456 202.659 241.574 202.79C241.574 203.836 241.295 203.452 241.958 204.637C241.592 205.264 241.243 205.874 240.86 206.502C241.121 206.728 241.365 206.99 241.609 207.216C240.442 209.115 241.069 209.83 240.529 211.311C240.145 211.677 239.797 212.06 239.431 212.426L239.814 212.809C239.548 213.053 239.304 213.297 239.083 213.541L239.448 213.925C238.821 214.778 238.229 215.667 237.601 216.521L237.985 216.887L235.772 219.135C235.894 219.257 236.033 219.379 236.138 219.501C234.395 222.847 230.091 224.834 228.053 226.227L226.554 224.746C226.885 223.004 225.892 222.899 227.286 221.052C228.471 221.052 232.844 217.897 233.89 215.824L233.524 215.441L234.639 214.325L234.256 213.977L235.371 212.844C235.232 212.478 235.092 212.112 234.97 211.747C235.354 211.119 235.702 210.509 236.068 209.899C235.946 209.255 235.807 208.645 235.702 208.035L236.434 207.286C236.295 206.188 236.155 205.073 236.033 203.958L236.765 203.208C236.626 202.355 236.504 201.466 236.382 200.63C236.49 200.49 236.612 200.361 236.748 200.246L235.998 199.514C236.103 198.399 236.225 197.284 236.347 196.186L235.598 195.437C235.72 194.583 235.824 193.694 235.946 192.858C235.702 192.597 235.441 192.353 235.197 192.109L235.563 190.262L234.813 189.53L235.179 188.397L234.43 187.683C233.96 185.469 234.238 182.454 232.879 180.276L230.666 181.775L230.3 181.409L229.569 182.141L228.453 181.792C227.965 182.28 227.46 182.786 226.99 183.291L226.606 182.908C225.753 183.291 225.474 183.744 224.777 184.04C222.75 183.669 221.058 182.278 220.299 180.363C220.421 180.259 220.543 180.12 220.665 179.998L219.915 179.266L220.281 178.151C219.898 177.541 219.514 176.931 219.149 176.304C219.271 175.938 219.393 175.554 219.514 175.206L217.859 173.01L218.225 172.627C217.685 171.276 216.918 170.027 215.96 168.933C215.123 170.797 214.217 172.662 213.416 174.526L213.799 174.892L212.335 177.122L212.701 177.488L211.97 178.238L212.335 178.604L211.238 179.719L211.621 180.085C211.116 181.078 210.645 182.071 210.157 183.064L210.541 183.43L209.791 184.162L210.157 184.545L209.373 185.208L209.757 185.573L209.025 186.306L209.391 186.69L208.659 187.422L209.025 187.805L208.293 188.554L208.659 188.903L207.561 190.035C207.683 190.645 207.822 191.255 207.944 191.882L207.213 192.632C207.335 193.241 207.474 193.851 207.596 194.479C207.335 194.723 207.108 194.984 206.864 195.228C206.986 195.594 207.108 195.96 207.247 196.343L206.498 197.092C206.638 197.441 206.76 197.824 206.882 198.19L206.15 198.939C206.272 199.549 206.394 200.159 206.55 200.786C206.307 201.03 206.045 201.274 205.801 201.536C205.296 203.505 206.219 203.017 204.355 205.247L202.856 204.515L202.49 204.899C202.125 204.515 201.741 204.149 201.375 203.783L201.009 204.167C200.643 203.783 200.26 203.417 199.877 203.069C199.511 203.191 199.145 203.295 198.779 203.435C197.369 203.045 196.089 202.288 195.068 201.239C195.259 200.595 195.068 200.037 195.068 199.758L195.799 199.009L195.416 198.643C196.636 195.977 199.511 196.901 200.643 194.897L200.278 194.531C200.765 193.555 201.253 192.544 201.724 191.551C201.602 191.185 201.497 190.819 201.358 190.453C202.09 188.972 202.804 187.474 203.553 185.974C203.414 185.866 203.285 185.744 203.17 185.608L203.919 184.877L203.536 184.511L204.25 183.761C204.137 183.631 204.015 183.509 203.884 183.395C204.39 182.402 204.878 181.409 205.366 180.416L204.982 180.05L206.08 178.935L205.714 178.551L206.446 177.819L206.08 177.454L207.178 176.338C207.059 176.208 206.93 176.086 206.794 175.972L207.892 174.091L207.526 173.742L208.258 172.993L207.875 172.627L208.624 171.878C208.488 171.763 208.366 171.635 208.258 171.494L209.356 170.379L208.972 170.013C209.478 169.02 209.948 168.044 210.454 167.051L210.07 166.685C210.297 166.424 210.558 166.18 210.802 165.936L210.436 165.57L211.882 162.59C211.743 161.249 211.621 159.872 211.482 158.513L210.366 157.415L210.732 157.032L209.6 155.934C207.857 152.134 205.871 147.221 202.107 143.405C201.724 143.77 201.358 144.154 200.992 144.52C201.131 145.617 201.271 146.75 201.393 147.865C201.149 148.353 200.922 148.841 200.678 149.346L201.41 150.078C201.306 151.681 201.201 153.285 201.079 154.888C201.323 155.15 201.584 155.376 201.828 155.62C201.706 156.248 201.584 156.857 201.48 157.502L202.212 158.217C202.107 158.356 201.968 158.461 201.863 158.6L202.595 159.332C202.49 159.942 202.351 160.569 202.247 161.179C202.647 163.461 203.71 163.165 201.532 165.622L200.051 164.908C198.072 164.475 196.34 163.287 195.224 161.597C195.338 161.472 195.46 161.356 195.59 161.249L194.039 159.07L194.405 157.973C194.161 157.711 193.9 157.467 193.656 157.223L194.022 156.857L192.907 155.76L193.273 155.376C191.53 152.134 185.937 149.294 183.951 147.674L186.547 145.809C187.523 146.036 189.875 145.635 190.223 145.809L195.834 151.315C196.491 150.319 196.864 149.162 196.915 147.97L196.531 147.604L197.646 145.757C197.507 144.886 197.385 144.014 197.263 143.161L197.995 142.411C197.855 142.045 197.734 141.679 197.612 141.296C197.716 139.954 197.838 138.578 197.943 137.219L191.948 124.655C190.781 122.582 186.076 121.432 184.125 119.881C184.677 118.766 185.419 117.758 186.32 116.9L186.721 117.249L187.836 116.116L188.22 116.5C189.506 116.564 190.788 116.307 191.948 115.75Z" fill="#9A1E23"/>
<path fill-rule="evenodd" clip-rule="evenodd" d="M409.171 319.261C415.984 319.261 421.507 324.785 421.507 331.598C421.507 338.411 415.984 343.935 409.171 343.935C402.358 343.935 396.834 338.411 396.834 331.598C396.844 324.789 402.361 319.272 409.171 319.261ZM444.613 160.168C286.535 160.168 157.609 289.116 157.609 447.181C157.609 605.245 286.553 734.192 444.613 734.192C602.673 734.192 731.616 605.245 731.616 447.181C731.616 289.116 602.638 160.168 444.613 160.168ZM378.974 585.607L477.667 512.421C477.667 512.421 530.43 553.266 589.186 530.299C658.885 506.461 709.156 404.348 690.441 352.439C674.271 303.09 637.679 279.253 637.679 279.253L359.388 542.2C359.388 542.2 346.895 556.332 335.568 545.686C323.65 532.912 339.82 518.45 339.82 518.45L600.233 269.041H521.073C521.073 269.041 538.097 284.376 520.219 307.377C502.341 330.378 469.164 349.93 469.164 349.93L426.665 303.944H344.926C394.273 366.902 404.536 404.348 404.536 404.348C404.536 404.348 239.453 561.786 233.494 567.728C227.535 573.67 214.763 574.541 214.763 574.541H201.154V585.607H378.974ZM659.512 313.25C659.512 313.25 702.064 350.156 675.404 417.801C656.446 468.561 610.305 516.742 577.494 503.917C544.683 491.092 538.027 462.915 538.027 462.915C538.027 462.915 637.47 366.536 649.772 356.795C662.074 347.055 659.512 313.25 659.512 313.25Z" fill="#9A1E23"/>
<path fill-rule="evenodd" clip-rule="evenodd" d="M62.5703 426.251L87.6271 444.183L110.053 427.593L110.175 435.069L98.1516 443.904C96.3037 445.303 94.3844 446.606 92.4015 447.807C94.2865 448.929 96.1074 450.158 97.8554 451.484L110.628 460.806L110.75 467.636L88.0976 451.362L63.3195 469.763L63.1801 461.991L79.9079 449.793C80.8663 449.096 81.9118 448.399 83.0444 447.65C81.3019 446.622 80.117 445.908 79.4549 445.455L62.6922 433.831L62.5703 426.286V426.251ZM65.515 491.788L112.562 486.003L113.329 492.224L66.2817 498.009L65.515 491.788ZM73.9138 536.607L124.568 541.05L126.432 547.549L86.1634 579.316L84.177 572.433L96.4789 563.144L91.0075 544.064L75.7434 543.019L73.9138 536.607ZM96.4266 544.395L100.87 559.851L112.127 551.452C115.542 548.908 118.388 546.927 120.665 545.511C117.528 545.763 114.375 545.763 111.238 545.511L96.4266 544.343V544.395ZM94.3705 598.187L97.0887 603.554L130.336 586.617L108.398 625.806L111.325 631.556L153.615 610.002L150.879 604.635L117.685 621.554L139.571 582.504L136.643 576.772L94.3705 598.187ZM170.465 687.579L174.891 691.569C173.488 693.113 172.478 694.972 171.946 696.988C171.557 698.999 171.751 701.078 172.503 702.983C173.367 705.33 174.708 707.472 176.441 709.274C177.87 710.88 179.583 712.208 181.495 713.194C183.012 713.997 184.732 714.342 186.443 714.187C187.891 714.032 189.25 713.422 190.329 712.445C191.383 711.499 192.078 710.22 192.298 708.821C192.47 707.099 192.169 705.365 191.427 703.802C190.216 701.14 188.86 698.544 187.367 696.03C185.687 693.284 184.314 690.363 183.272 687.317C182.603 685.134 182.524 682.815 183.045 680.591C183.591 678.577 184.704 676.763 186.252 675.364C187.991 673.726 190.183 672.651 192.542 672.28C195.112 671.867 197.747 672.255 200.087 673.395C202.774 674.658 205.189 676.434 207.196 678.622C209.416 680.914 211.152 683.627 212.302 686.603C213.298 689.124 213.499 691.891 212.877 694.531C212.235 697.114 210.897 699.471 209.008 701.344L204.565 697.249C206.36 695.378 207.337 692.871 207.283 690.28C206.886 687.361 205.487 684.669 203.328 682.665C201.509 680.361 198.979 678.725 196.131 678.013C194.175 677.61 192.145 678.175 190.677 679.528C189.47 680.591 188.799 682.137 188.848 683.745C188.848 685.401 190.207 688.467 192.838 692.98C194.767 696.084 196.424 699.347 197.787 702.739C198.712 705.221 198.935 707.911 198.432 710.511C197.872 712.842 196.621 714.951 194.842 716.557C192.974 718.286 190.643 719.43 188.133 719.85C185.403 720.291 182.603 719.941 180.066 718.84C177.175 717.606 174.587 715.757 172.486 713.421C169.875 710.807 167.834 707.679 166.492 704.238C165.422 701.409 165.233 698.323 165.952 695.385C166.68 692.442 168.226 689.766 170.412 687.666L170.465 687.579ZM203.572 741.946L208.799 745.553L221.572 727.273L241.784 741.423L228.96 759.737L234.1 763.344L261.335 724.468L256.108 720.861L244.938 736.823L224.725 722.673L235.895 706.712L230.754 703.105L203.537 741.981L203.572 741.946ZM256.857 777.145L280.589 736.039L286.026 739.176L262.293 780.282L256.857 777.145ZM298.676 797.549L306.204 778.922L299.495 746.686L306.57 749.561L309.898 766.323C310.49 769.461 310.978 772.528 311.344 775.594C313.587 773.817 316.235 771.871 319.29 769.757L333.09 760.242L339.886 762.978L312.006 781.257L304.479 799.884L298.659 797.532L298.676 797.549ZM345.723 790.702C347.466 783.035 350.951 777.494 356.073 774.113C361.21 770.722 367.551 769.689 373.498 771.273C377.569 772.151 381.32 774.134 384.336 777.006C387.274 779.799 389.318 783.401 390.209 787.356C391.158 791.649 391.099 796.105 390.034 800.372C389.114 804.756 387.147 808.852 384.302 812.309C381.724 815.467 378.239 817.755 374.317 818.861C370.438 819.967 366.34 820.056 362.416 819.122C358.293 818.241 354.502 816.219 351.473 813.285C348.563 810.44 346.546 806.805 345.671 802.83C344.733 798.818 344.733 794.643 345.671 790.632L345.723 790.702ZM352.013 792.27C350.635 797.011 351.153 802.105 353.46 806.472C357.997 814.107 367.866 816.618 375.502 812.081C375.708 811.957 375.912 811.83 376.112 811.699C379.823 809.155 382.385 804.904 383.761 798.943C384.612 795.575 384.737 792.066 384.127 788.645C383.606 785.694 382.216 782.963 380.137 780.804C378.025 778.684 375.343 777.218 372.418 776.588C368.264 775.565 363.873 776.241 360.221 778.469C356.41 780.722 353.704 785.335 352.101 792.305L352.013 792.27ZM441.193 779.602L447.484 779.828L446.665 807.291C446.672 811.144 445.994 814.967 444.661 818.582C443.426 821.414 441.279 823.75 438.562 825.221C435.123 827 431.253 827.779 427.393 827.469C423.619 827.486 419.9 826.563 416.572 824.785C413.885 823.261 411.824 820.835 410.752 817.937C409.524 814.08 409.052 810.021 409.358 805.984L410.317 778.574L416.59 778.783L415.631 806.176C415.38 809.244 415.664 812.334 416.468 815.306C417.139 817.256 418.478 818.905 420.249 819.959C422.314 821.158 424.657 821.788 427.045 821.788C431.692 821.963 435.02 821.027 437.029 818.983C439.05 816.979 440.183 812.989 440.392 807.03L441.333 779.654L441.193 779.602ZM545.742 763.814L551.754 761.967L559.769 788.21C561.018 791.852 561.607 795.687 561.511 799.536C561.257 802.614 559.989 805.519 557.905 807.796C555.237 810.605 551.83 812.604 548.077 813.564C544.515 814.808 540.703 815.15 536.977 814.557C533.938 813.98 531.199 812.353 529.241 809.957C526.826 806.709 525.052 803.031 524.013 799.118L515.998 772.876L521.992 771.134L530.008 797.271C530.772 800.254 532.046 803.085 533.771 805.636C535.043 807.265 536.852 808.389 538.877 808.807C541.201 809.256 543.604 809.094 545.847 808.336C550.273 806.977 553.118 805.008 554.385 802.429C555.639 799.867 555.395 795.72 553.653 790.022L545.655 763.884L545.742 763.814ZM589.757 798.438L569.684 755.415L575.521 752.697L613.855 775.943L598.173 742.155L603.627 739.611L623.683 782.634L617.846 785.37L579.511 762.089L595.281 795.894L589.827 798.438H589.757ZM647.259 768.694L652.486 765.208L626.628 725.391L621.4 728.876L647.259 768.694ZM685.384 741.667L639.958 718.7L645.028 714.135L677.264 731.56C679.843 732.954 682.166 734.326 684.234 735.673C683.072 733.255 681.974 730.758 680.941 728.18L667.646 694.026L672.403 689.739L690.298 737.381L685.506 741.702L685.384 741.667ZM719.519 711.016L742.398 683.92L738.094 680.313L719.362 702.635L706.991 692.179L723.875 672.071L719.606 668.481L702.722 688.607L691.587 679.267L709.605 657.781L705.318 654.174L683.328 680.539L719.694 711.051L719.519 711.016ZM757.662 664.246L717.847 638.388L729.417 620.84C731.072 618.022 733.213 615.522 735.742 613.452C737.669 612.051 740.018 611.35 742.398 611.465C744.919 611.539 747.371 612.317 749.472 613.713C752.177 615.36 754.109 618.021 754.839 621.101C755.514 624.818 754.899 628.655 753.097 631.974C754.348 631.154 755.709 630.514 757.139 630.075C759.804 629.429 762.536 629.111 765.277 629.134L780.611 629.256L776.307 635.878L764.615 635.756C761.217 635.756 758.568 635.756 756.651 636.018C755.146 636.082 753.661 636.399 752.26 636.959C751.292 637.387 750.401 637.976 749.629 638.701C748.85 639.578 748.15 640.524 747.538 641.524L743.566 647.623L761.252 659.106L757.767 664.333L757.662 664.246ZM738.843 644.539L746.197 633.211C747.51 631.349 748.495 629.273 749.107 627.078C749.506 625.534 749.37 623.901 748.723 622.443C748.124 621.054 747.124 619.876 745.848 619.063C744.102 617.86 741.91 617.503 739.871 618.087C737.306 619.054 735.174 620.91 733.86 623.314L725.67 635.913L738.843 644.469V644.539ZM775.139 605.314L777.073 599.685C779.039 600.378 781.144 600.581 783.207 600.278C785.218 599.858 787.063 598.866 788.521 597.42C790.349 595.712 791.797 593.641 792.773 591.339C793.693 589.384 794.237 587.274 794.376 585.118C794.524 583.41 794.172 581.698 793.366 580.187C792.686 578.917 791.618 577.896 790.316 577.277C789.039 576.672 787.591 576.531 786.221 576.876C784.562 577.383 783.078 578.342 781.935 579.647C779.954 581.799 778.098 584.062 776.376 586.425C774.503 589.046 772.339 591.449 769.929 593.587C768.18 595.052 766.077 596.031 763.831 596.427C761.759 596.723 759.645 596.408 757.749 595.521C755.594 594.541 753.775 592.947 752.522 590.938C751.147 588.734 750.478 586.162 750.605 583.567C750.724 580.589 751.428 577.664 752.679 574.96C753.914 572.016 755.735 569.356 758.028 567.136C759.967 565.241 762.433 563.977 765.103 563.51C767.732 563.092 770.428 563.406 772.891 564.416L770.853 570.115C768.41 569.167 765.685 569.255 763.308 570.359C760.781 571.865 758.854 574.198 757.854 576.963C756.444 579.54 755.923 582.511 756.373 585.414C756.767 587.359 758.059 589 759.858 589.84C761.307 590.528 762.991 590.528 764.44 589.84C765.956 589.195 768.256 586.773 771.41 582.574C773.487 579.584 775.82 576.78 778.38 574.193C780.328 572.37 782.74 571.116 785.35 570.568C787.716 570.171 790.149 570.506 792.32 571.527C794.636 572.564 796.594 574.261 797.948 576.406C799.431 578.744 800.205 581.461 800.179 584.229C800.173 587.373 799.483 590.476 798.157 593.325C796.767 596.742 794.692 599.837 792.059 602.422C789.863 604.502 787.096 605.881 784.113 606.377C781.118 606.862 778.047 606.482 775.261 605.28L775.139 605.314ZM811.731 552.602L766.096 539.516L767.838 533.486L813.474 546.573L811.731 552.602ZM821.594 509.04L780.245 502.488L777.805 517.926L772.264 517.055L778.154 479.904L783.695 480.776L781.238 496.284L822.587 502.836L821.594 509.04ZM826.995 451.832L806.887 451.484L779.217 469.293L779.339 461.66L793.819 452.546C796.514 450.874 799.22 449.318 801.938 447.877C799.464 446.395 796.711 444.618 793.644 442.545L779.844 433.099L779.966 425.781L807.044 445.28L827.135 445.629L826.995 451.832Z" fill="#9A1E23"/>
<path fill-rule="evenodd" clip-rule="evenodd" d="M119.222 519.895C117.288 520.017 115.738 520.069 114.361 520.035C112.643 519.927 110.939 519.653 109.273 519.216C107.182 518.728 106.136 518.641 106.102 518.937C106.067 519.233 107.287 519.86 109.691 520.766C111.806 521.58 114.003 522.164 116.243 522.509C118.113 522.772 120.012 522.737 121.871 522.404C123.454 522.173 124.905 521.388 125.966 520.191C126.903 519.061 127.204 517.532 126.767 516.13C126.552 514.804 125.68 513.675 124.45 513.133C123.311 512.71 122.045 512.787 120.965 513.342C119.87 513.844 118.992 514.722 118.491 515.817C118.065 517.214 118.338 518.733 119.222 519.895Z" fill="#9A1E23"/>
<path fill-rule="evenodd" clip-rule="evenodd" d="M408.837 645.656V688.539H398.138V665.537C398.214 663.542 398.133 661.544 397.894 659.561C397.721 658.874 397.239 658.306 396.587 658.027C395.033 657.574 393.41 657.404 391.795 657.522H390.75V652.521C395.378 651.72 399.563 649.284 402.546 645.656H408.837ZM417.096 677.143H427.812C427.812 679.147 427.812 680.402 427.812 680.925C427.852 681.426 428.082 681.895 428.457 682.231C428.882 682.608 429.44 682.803 430.008 682.772C430.51 682.785 430.996 682.604 431.367 682.266C431.721 681.919 431.931 681.454 431.959 680.959C431.959 680.437 431.959 679.356 431.959 677.753V670.922C431.475 672.025 430.633 672.933 429.572 673.502C428.347 674.118 426.988 674.418 425.617 674.373C423.751 674.404 421.923 673.85 420.389 672.787C419.018 671.89 418.006 670.538 417.532 668.97C417.077 666.999 416.871 664.98 416.922 662.959V659.474C416.88 657.233 416.997 654.99 417.27 652.765C417.533 651.272 418.168 649.869 419.117 648.688C420.208 647.377 421.628 646.379 423.229 645.795C425.179 645.07 427.249 644.722 429.328 644.767C431.707 644.692 434.078 645.095 436.298 645.952C438.03 646.673 439.513 647.884 440.567 649.437C441.532 650.834 442.132 652.453 442.31 654.142C442.466 655.78 442.554 658.951 442.554 663.673V669.632C442.554 674.733 442.479 678.142 442.327 679.862C442.184 681.632 441.55 683.327 440.497 684.758C439.396 686.321 437.865 687.532 436.089 688.243C431.606 689.897 426.662 689.79 422.254 687.947C420.449 687.089 418.987 685.647 418.107 683.852C417.204 681.74 416.775 679.456 416.852 677.161L417.096 677.143ZM427.812 663.778C427.812 665.52 428.039 666.687 428.509 667.106C428.893 667.494 429.41 667.724 429.955 667.75C430.607 667.803 431.233 667.487 431.576 666.931C432.013 665.942 432.193 664.856 432.099 663.778V656.006C432.191 654.748 432.024 653.485 431.611 652.295C431.278 651.713 430.64 651.375 429.973 651.423C429.427 651.462 428.917 651.704 428.544 652.103C428.056 652.556 427.812 653.758 427.812 655.745V663.778ZM473.953 645.656V652.521H460.675V659.805C462.24 657.883 464.61 656.795 467.088 656.86C469.569 656.693 472.003 657.592 473.779 659.334C475.277 660.995 476.027 664.166 476.027 668.848V674.983C476.082 677.222 475.943 679.459 475.608 681.674C475.296 683.115 474.652 684.463 473.726 685.612C472.688 686.892 471.311 687.858 469.754 688.4C467.748 689.088 465.636 689.414 463.516 689.358C461.006 689.414 458.515 688.921 456.215 687.912C454.244 687.063 452.656 685.519 451.754 683.573C450.707 680.752 450.25 677.744 450.412 674.739V672.404H461.128V675.087C461.092 677.054 461.184 679.022 461.407 680.977C461.48 682.014 462.381 682.794 463.418 682.719C463.421 682.719 463.425 682.719 463.428 682.719C463.909 682.737 464.376 682.554 464.718 682.214C465.014 681.926 465.201 681.545 465.241 681.134C465.241 680.728 465.275 679.037 465.345 676.063V667.559C465.431 666.442 465.258 665.321 464.84 664.283C464.491 663.664 463.801 663.319 463.097 663.412C462.639 663.398 462.193 663.553 461.843 663.847C461.545 664.109 461.322 664.447 461.198 664.823C461.066 665.611 461.019 666.412 461.059 667.21H450.534L450.987 645.603L473.953 645.656ZM498.679 645.656V688.539H487.98V665.537C488.057 663.542 487.975 661.544 487.736 659.561C487.563 658.874 487.081 658.306 486.429 658.027C484.875 657.574 483.253 657.404 481.637 657.522H480.592V652.521C485.22 651.72 489.405 649.284 492.388 645.656H498.679Z" fill="white"/>
</svg>
